<svg id="logo" xmlns="http://www.w3.org/2000/svg" viewBox="0 0 124.89 60.08">
  <style>
    .white {
      fill: #fff;
    }
  </style>
  <polygon class="white" points="66.53 19.53 58.21 19.53 55.84 29.63 68.9 29.63 66.53 19.53"></polygon><polygon class="white" points="43.88 0 33.24 29.67 50.62 29.67 55.07 15.3 69.66 15.3 74.16 29.67 91.48 29.67 80.9 0 43.88 0"></polygon><polygon class="white" points="25.91 50.8 22.7 60.07 41.18 60.07 44.06 50.8 25.91 50.8"></polygon><polygon class="white" points="80.76 50.8 83.67 60.08 102.23 60.08 98.99 50.8 80.76 50.8"></polygon><polygon class="white" points="124.89 46.8 107.19 19.58 107.19 19.53 107.16 19.53 107.15 19.53 107.04 19.53 92.57 19.53 99.13 33.65 25.73 33.65 32.29 19.53 17.75 19.53 17.75 19.6 0 46.78 49.96 46.8 124.89 46.8"></polygon>
</svg>