<svg id="logo" xmlns="http://www.w3.org/2000/svg" viewBox="0 0 599 289">
  <style>
    .white {
      fill: #fff;
    }
  </style>
  <path class="white" d="M72.2,176.53a108,108,0,0,1,10.66-6.36c-.19-6-1.63-15-4.09-26.89-2.1-10.15-4.2-20.35-6.89-30.39A60.78,60.78,0,0,0,66,116.07a52.46,52.46,0,0,0-12,9.57,52.43,52.43,0,0,0-8.28,12.85,8.35,8.35,0,0,1-6.09,1.62,7.21,7.21,0,0,1-5-3c-2.89-4-2.45-10.27,1.86-18.38C42,108.41,52.17,100.74,62,95c15.43-9,36.86-15.9,53.54-10.53,13.72,4.41,25,12.65,31,27.38a45.87,45.87,0,0,1,3.35,21.39,43.29,43.29,0,0,1-7.44,20.48,48.72,48.72,0,0,1-17.89,15.92c-9.29,5-20,6.93-30.22,9.07-2.39,5.87-5,9.85-8,12-2.42,1.69-5.23,1.86-8.51.52a17.17,17.17,0,0,1-7.62-5.7A6,6,0,0,1,69,181,6.78,6.78,0,0,1,72.2,176.53Zm53.91-51.41a30.37,30.37,0,0,0-13.18-13.76c-6.07-3.33-13.41-4.74-22-4,2.37,10.71,4.6,21.43,6,32.29,1.32,10.4,2,18.51,1.6,24.34,9.59-3.06,16.19-5.33,19.84-7.3,6.11-3.3,9.64-7.68,10.68-13.4S129.17,131.52,126.11,125.12Z"></path><path class="white" d="M194.19,82.22a7.91,7.91,0,0,1,7.74,1.89,15,15,0,0,1,4.49,7.56c1.24,4.84,1.16,10.83,0,18a4.45,4.45,0,0,0,3,.11c4.13-1,7.63-5.06,10.78-12.09a6.72,6.72,0,0,1,4.12.44,3.77,3.77,0,0,1,2.46,2.68c.63,3-.89,6.84-4.35,11.75a22.67,22.67,0,0,1-13,9.41,12.12,12.12,0,0,1-5.79.29c-4.57,9.87-10.75,16.1-19.1,19a18.77,18.77,0,0,1-13.54,0c-4.19-1.68-7.34-5.39-9.59-10.68-3.51-8.27-3.72-20.84-.41-29.21,3.82-9.66,9.86-16.29,18-18.72a14.43,14.43,0,0,1,6.49-.54,4.67,4.67,0,0,1,3.95,3.18A8.25,8.25,0,0,1,194.19,82.22Zm-15,37c1.68,4.92,4.15,6.82,7.41,5.77,3.54-1.14,5.68-4.72,6.57-10.81a37.5,37.5,0,0,1-4.69-9.8c-1.77-5.74-2.11-10.61-1-14.62-4,3-6.88,7.52-8.49,13.39A26.84,26.84,0,0,0,179.18,119.26Z"></path><path class="white" d="M217.88,111.4c-1.9-7.87-.74-16.15,4-24.7s10.59-13.36,17-14.37a12,12,0,0,1,3.13-.11C237.92,65,235.36,59.31,234.6,55c-1-5.52.87-10.34,5.71-14.32s12.38-6.6,22.48-7.49c7.21-.64,12.64,0,16.21,1.62s5.42,3.91,5.61,6.72a10.3,10.3,0,0,1-2,6.5c-6.88.36-12.24.85-16.09,1.3A61.32,61.32,0,0,0,257.31,51c-2.3.65-3.78,1.34-4.44,2a3.1,3.1,0,0,0-.76,2.72c.08.56,1.85,3.12,5.2,7.71,6.26,8.33,9.4,15.73,10.2,21.6,1.15,8.48-1.4,20-6.17,27.19-5.15,7.73-12,12.71-21,14.42-5.47,1-10.13.35-14.12-2.15S219.4,117.68,217.88,111.4Zm32.77-16.21a59.67,59.67,0,0,0-5.1-16.85,49.24,49.24,0,0,0-7.13,14.45c-1.64,5.31-2,9.78-1.35,13.38.66,3.44,2.34,4.9,5.05,4.43a9.66,9.66,0,0,0,7-5A15.58,15.58,0,0,0,250.65,95.18Z"></path><path class="white" d="M289.43,150.52a16,16,0,0,1-9.44-2.39c-3.13-1.83-4.89-4.17-5.21-7.06-.46-4.18,1.09-10.3,5.09-18.26q-.95-17.52-1.78-35c-.47-9.58,1.68-17.3,6.68-23s10.82-8.62,17.16-8.71a15.84,15.84,0,0,1,7.78,1.52,4.77,4.77,0,0,1,2.88,4.22,4.47,4.47,0,0,1-.14,1.32c-6.61,4.51-11,11.26-13.38,20.07A53.7,53.7,0,0,1,312.6,70.31c4.63-2.93,8.71-4.3,12.12-4.19a12.65,12.65,0,0,1,8.79,3.38,9.86,9.86,0,0,1,3,7.94c-.74,10-9.61,19-16.81,25.56a11.14,11.14,0,0,0,5.24,1.44c2,.06,5.05-1.2,9.31-3.69A70.68,70.68,0,0,0,347.71,90a7.17,7.17,0,0,1,3.87,1.48,3.31,3.31,0,0,1,1.52,3c-.21,2.45-2.66,5.54-7.17,9.4a82.63,82.63,0,0,1-15.6,10.35c-5.88,3.07-10.68,4.66-14.6,4.65-4.29,0-7.43-1.12-9.47-3.41a12.45,12.45,0,0,1-3.24-8.11c-.11-3.2,1.53-5.3,4.94-6.22,2.85-4.84,4.34-8.38,4.32-10.7s-1-3.37-3-3.36-8.45,3.11-10.07,6.78c-3.48,7.91-.47,28.13-2.4,42C295.49,145.3,293,150.25,289.43,150.52Z"></path><path class="white" d="M390.91,74.72a8,8,0,0,1,6.2,4.85A14,14,0,0,1,398,88c-.89,4.7-3.47,9.86-7.53,15.56a4.57,4.57,0,0,0,2.7,1.36c4.17.82,9-1.21,14.81-6a6.93,6.93,0,0,1,3.55,2.1,3.58,3.58,0,0,1,1.12,3.35c-.66,2.82-3.66,5.54-8.86,8.35a23.24,23.24,0,0,1-15.74,2.72,12.5,12.5,0,0,1-5.36-2.15c-8.24,6.65-16.41,9.5-25.12,8.55-5.08-.55-9.1-2.37-12.15-5.55s-4.33-7.7-4.14-13.2c.3-8.64,5.38-19.65,11.76-25.48,7.43-6.78,15.61-10.06,23.94-8.8A14.77,14.77,0,0,1,383.09,71a4.49,4.49,0,0,1,2.23,4.39A8.39,8.39,0,0,1,390.91,74.72ZM362,100.6c-.54,5,.89,7.62,4.26,8.05,3.66.47,7.08-1.74,10.42-6.65a34.79,34.79,0,0,1-.14-10.43c.8-5.7,2.52-10.06,5.23-13.05-4.89,1-9.32,3.67-13.21,8.09A25.1,25.1,0,0,0,362,100.6Z"></path><path class="white" d="M457.58,110.06c9.88-4.87,22-11.86,32.84-7.6a11.07,11.07,0,0,1,6.3,5.53,7.84,7.84,0,0,1,0,6.66c-1.26,2.8-4.16,5.8-8.59,9.11-.65.47-2,1.48-4,3.06s-3.67,2.88-4.9,3.9-2.47,2.14-3.72,3.36a10.47,10.47,0,0,0-2.26,2.8c-.44,1.07,0,1.86,1.19,2.38,1.41.6,4.64.24,9.79-.93a136.91,136.91,0,0,0,17.54-5.5,7.65,7.65,0,0,1,3.16,2.8,3.15,3.15,0,0,1,.4,3.22c-1.07,2.11-4.7,4.07-10.75,6.1a106,106,0,0,1-19.66,4.41c-7.06.95-12.34.82-16-.62s-6.06-3.11-7.11-5.1-1-4.51,0-7.57c1-2.77,3.83-6.66,8.7-11.55s7.47-7.49,7.63-7.92c.33-.86-.07-1.52-1.19-2a6.81,6.81,0,0,0-2.6-.13,25.54,25.54,0,0,0-5.19,1.16,37.09,37.09,0,0,0-6.73,2.88c-5.53,8.89-8.87,18.63-11.1,20.87-.76.77-3.61.64-5.79-.06-8.23-2.63-11.6-6.91-9.92-13.1,1.09-4,4.17-9.06,9.35-14.88,2.62-3,4-4.81,4.23-5.41q.4-1.34-1.32-1.87c-2.1-.64-8.77.82-12.42,4.77-5,5.42-7.23,19.08-9.54,21.77-.61.71-3.31.71-5.72.11a13.31,13.31,0,0,1-8.41-6,13.52,13.52,0,0,1-2-10c.88-4.56,3.32-9.55,7.27-14.75a15.83,15.83,0,0,1,.08-7.45c.72-3.37,3.76-6.25,9.28-8.48s10.71-2.65,15.43-1.32c4.31,1.21,6,3.44,5.12,6.59-.95,3.37-3.68,7.14-8,11.41,6.69-5.23,12.48-8.4,17.13-9.65a21,21,0,0,1,12.5.07,10.63,10.63,0,0,1,5.79,4.11,6,6,0,0,1,.61,5.48C463.69,104.19,461.21,107.26,457.58,110.06Z"></path><path class="white" d="M517,158.52c-4.23,3.11-8,4.88-11.51,5.3a15.35,15.35,0,0,1-9.05-1.34,13.63,13.63,0,0,1-7.22-8.19c-1.15-3.61-.7-7.71,1.44-12.29a29.65,29.65,0,0,1,11.82-12.71,39.42,39.42,0,0,1,18.1-5.83c6.45-.44,12,.72,16.54,3.36a7.61,7.61,0,0,1,3.19,2.8l3.75-5.45a9.08,9.08,0,0,1,5.63,1.69c4.36,2.69,7.33,5.78,8.91,9.15s1.72,6,.52,7.82a20.73,20.73,0,0,1-5.56,5.29c-11.36,8.17-17.63,13.88-19.32,16.58q-1.39,2.21.11,3.16c1.41.89,4.34,1.27,8.83,1.26S550.61,172.2,557,171c1.34.95-.2,3.56,2,2,1-.74,3.62-.4,3.05.39-2.17,3-9,4.29-20.29,4.78s-18.82-.19-23.12-2.75c-2.93-1.74-4.78-3.61-5.56-5.68s-.35-4.59,1.33-7.57A26.06,26.06,0,0,1,517,158.52Zm2.88-4.79c6.32-7.32,9.53-10.94,16-18.1a25.7,25.7,0,0,0-13.75,2.69,21.24,21.24,0,0,0-10,9.06q-1.35,2.52-.94,3.78a4.05,4.05,0,0,0,2.08,2.18C515,154.28,517.2,154.4,519.86,153.73Z"></path><path class="white" d="M531,176c.49.79,9.9,2,15,2,6,0,8,1,9,2,4.74,4.74,8,15-7,30-44.92,44.92-128,10-149,1s-90.18-37.29-142-42c-55-5-109,19-141,44-27.57,21.54,45,23,63,15s68.75-56.92,125-41c53,15,83.93,69.29,163,73,64,3,93.72-21,100-65,2-14-.57-19.21-5-23-7-6-16.64-2.54-22-2C530,171,526,168,531,176Z"></path>
</svg>